<svg width="512" height="512" viewBox="0 0 512 512" fill="none" xmlns="http://www.w3.org/2000/svg">
<g clip-path="url(#clip0)">
<path d="M502.004 256C502.004 391.863 391.863 502.004 256 502.004C120.137 502.004 10 391.863 10 256C10 120.137 120.137 10 256 10C391.863 10 502.004 120.137 502.004 256Z" fill="#1976D2"/>
<path d="M341.668 139.848L222.5 259.016L170.336 206.852L113.766 263.422L165.93 315.586L222.5 372.152L398.234 196.418L341.668 139.848Z" fill="white"/>
<path d="M222.5 382.152C219.848 382.152 217.305 381.098 215.43 379.223L106.695 270.492C102.789 266.586 102.789 260.254 106.695 256.348L163.262 199.781C167.168 195.875 173.5 195.875 177.406 199.781L222.5 244.875L334.594 132.777C336.469 130.902 339.016 129.848 341.668 129.848C344.316 129.848 346.863 130.902 348.738 132.777L405.305 189.348C409.211 193.25 409.211 199.582 405.305 203.488L229.57 379.227C227.695 381.102 225.152 382.152 222.5 382.152V382.152ZM127.91 263.422L222.5 358.012L384.094 196.418L341.668 153.988L229.57 266.086C225.664 269.992 219.332 269.992 215.43 266.086L170.336 220.992L127.91 263.422Z" fill="black"/>
<path d="M255.938 512C249.406 512 242.867 511.75 236.316 511.25C175.48 506.586 118.184 480.223 74.9805 437.023C26.6289 388.668 0 324.383 0 256C0 187.621 26.6289 123.332 74.9805 74.9805C123.332 26.6289 187.621 0 256 0C324.383 0 388.668 26.6289 437.023 74.9805C480.223 118.184 506.586 175.48 511.25 236.316C515.863 296.492 499.105 356.473 464.066 405.215C460.844 409.699 454.594 410.719 450.109 407.496C445.625 404.273 444.605 398.023 447.828 393.539C515.555 299.332 505.062 171.309 422.879 89.1211C330.863 -2.89453 181.141 -2.89453 89.125 89.1211C-2.89453 181.141 -2.89453 330.859 89.125 422.879C171.309 505.059 299.336 515.555 393.543 447.824C398.027 444.602 404.273 445.625 407.5 450.109C410.723 454.594 409.699 460.84 405.215 464.066C361.777 495.293 309.41 512 255.938 512V512Z" fill="black"/>
<path d="M429.953 439.953C427.32 439.953 424.742 438.883 422.883 437.023C421.023 435.16 419.953 432.582 419.953 429.953C419.953 427.32 421.023 424.742 422.883 422.883C424.742 421.023 427.32 419.953 429.953 419.953C432.582 419.953 435.16 421.023 437.023 422.883C438.883 424.742 439.953 427.32 439.953 429.953C439.953 432.582 438.883 435.16 437.023 437.023C435.16 438.883 432.582 439.953 429.953 439.953Z" fill="black"/>
</g>
<defs>
<clipPath id="clip0">
<rect width="512" height="512" fill="white"/>
</clipPath>
</defs>
</svg>
