<svg width="24" height="24" viewBox="0 0 24 24" fill="none" xmlns="http://www.w3.org/2000/svg">
<path d="M23.5314 12C23.5314 18.3686 18.3686 23.5314 12 23.5314C5.63141 23.5314 0.46875 18.3686 0.46875 12C0.46875 5.63141 5.63141 0.46875 12 0.46875C18.3686 0.46875 23.5314 5.63141 23.5314 12Z" fill="white"/>
<path d="M16.0157 6.55536L10.4297 12.1414L7.9845 9.69617L5.33276 12.3479L7.77795 14.7931L10.4297 17.4446L18.6672 9.20709L16.0157 6.55536Z" fill="#507DD7"/>
<path d="M10.4297 17.9134C10.3054 17.9134 10.1862 17.864 10.0983 17.7761L5.00134 12.6793C4.81824 12.4962 4.81824 12.1994 5.00134 12.0163L7.65289 9.36475C7.836 9.18164 8.13281 9.18164 8.31592 9.36475L10.4297 11.4785L15.6841 6.22394C15.772 6.13605 15.8914 6.08661 16.0157 6.08661C16.1398 6.08661 16.2592 6.13605 16.3471 6.22394L18.9987 8.87567C19.1818 9.05859 19.1818 9.35541 18.9987 9.53851L10.7611 17.7762C10.6732 17.8641 10.554 17.9134 10.4297 17.9134ZM5.99579 12.3479L10.4297 16.7818L18.0044 9.20709L16.0157 7.2182L10.7611 12.4728C10.578 12.6559 10.2812 12.6559 10.0983 12.4728L7.9845 10.359L5.99579 12.3479Z" fill="white"/>
</svg>
