<svg width="24" height="24" viewBox="0 0 24 24" fill="none" xmlns="http://www.w3.org/2000/svg">
<g clip-path="url(#clip0)">
<path d="M23.5314 12C23.5314 18.3686 18.3686 23.5314 12 23.5314C5.63141 23.5314 0.46875 18.3686 0.46875 12C0.46875 5.63141 5.63141 0.46875 12 0.46875C18.3686 0.46875 23.5314 5.63141 23.5314 12Z" fill="#507DD7"/>
<path d="M16.0157 6.55536L10.4297 12.1414L7.9845 9.69617L5.33276 12.3479L7.77795 14.7931L10.4297 17.4446L18.6672 9.20709L16.0157 6.55536Z" fill="white"/>
<path d="M10.4297 17.9134C10.3054 17.9134 10.1862 17.864 10.0983 17.7761L5.00134 12.6793C4.81824 12.4962 4.81824 12.1994 5.00134 12.0163L7.65289 9.36475C7.836 9.18164 8.13281 9.18164 8.31592 9.36475L10.4297 11.4785L15.6841 6.22394C15.772 6.13605 15.8914 6.08661 16.0157 6.08661C16.1398 6.08661 16.2592 6.13605 16.3471 6.22394L18.9987 8.87567C19.1818 9.05859 19.1818 9.35541 18.9987 9.53851L10.7611 17.7762C10.6732 17.8641 10.554 17.9134 10.4297 17.9134V17.9134ZM5.99579 12.3479L10.4297 16.7818L18.0044 9.20709L16.0157 7.2182L10.7611 12.4728C10.578 12.6559 10.2812 12.6559 10.0983 12.4728L7.9845 10.359L5.99579 12.3479Z" fill="black"/>
<path d="M11.9971 24C11.6909 24 11.3844 23.9883 11.0773 23.9648C8.22565 23.7462 5.53986 22.5104 3.51471 20.4855C1.24823 18.2188 0 15.2054 0 12C0 8.79474 1.24823 5.78119 3.51471 3.51471C5.78119 1.24823 8.79474 0 12 0C15.2054 0 18.2188 1.24823 20.4855 3.51471C22.5104 5.53986 23.7462 8.22565 23.9648 11.0773C24.1811 13.8981 23.3956 16.7097 21.7531 18.9944C21.6021 19.2047 21.3091 19.2524 21.0989 19.1014C20.8887 18.9503 20.8409 18.6573 20.9919 18.4471C24.1666 14.0312 23.6748 8.03009 19.8224 4.17755C15.5092 -0.135681 8.49097 -0.135681 4.17773 4.17755C-0.135681 8.49097 -0.135681 15.509 4.17773 19.8224C8.03009 23.6746 14.0314 24.1666 18.4473 20.9918C18.6575 20.8407 18.9503 20.8887 19.1016 21.0989C19.2526 21.3091 19.2047 21.6019 18.9944 21.7531C16.9583 23.2169 14.5036 24 11.9971 24V24Z" fill="black"/>
<path d="M20.1541 20.6228C20.0306 20.6228 19.9098 20.5726 19.8226 20.4855C19.7355 20.3981 19.6853 20.2773 19.6853 20.1541C19.6853 20.0306 19.7355 19.9098 19.8226 19.8226C19.9098 19.7355 20.0306 19.6853 20.1541 19.6853C20.2773 19.6853 20.3981 19.7355 20.4855 19.8226C20.5726 19.9098 20.6228 20.0306 20.6228 20.1541C20.6228 20.2773 20.5726 20.3981 20.4855 20.4855C20.3981 20.5726 20.2773 20.6228 20.1541 20.6228Z" fill="black"/>
</g>
<defs>
<clipPath id="clip0">
<rect width="24" height="24" fill="white"/>
</clipPath>
</defs>
</svg>
